<?xml version="1.0" encoding="UTF-8" standalone="no"?><!-- Generator: Gravit.io --><svg xmlns="http://www.w3.org/2000/svg" xmlns:xlink="http://www.w3.org/1999/xlink" style="isolation:isolate" viewBox="0 0 16 16" width="16pt" height="16pt"><defs><clipPath id="_clipPath_nuNlNgR6jVaAE74xgpYRmhCcCBndWmS6"><rect width="16" height="16"/></clipPath></defs><g clip-path="url(#_clipPath_nuNlNgR6jVaAE74xgpYRmhCcCBndWmS6)"><clipPath id="_clipPath_zDBJAUDMDXOvzImLKotSFMOr1m8UfFox"><rect x="0" y="0" width="16" height="16" transform="matrix(1,0,0,1,0,0)" fill="rgb(255,255,255)"/></clipPath><g clip-path="url(#_clipPath_zDBJAUDMDXOvzImLKotSFMOr1m8UfFox)"><g><rect x="0" y="0" width="16" height="16" transform="matrix(1,0,0,1,0,0)" fill="none" vector-effect="non-scaling-stroke" stroke-width="0.1" stroke-dasharray="0.2,0.2" stroke="rgb(185,185,185)" stroke-opacity="100" stroke-linejoin="miter" stroke-linecap="square" stroke-miterlimit="2"/><clipPath id="_clipPath_mtrdRkXdjEgsmNIwDv0nIiv66JlREggJ"><rect x="0" y="0" width="16" height="16" transform="matrix(1,0,0,1,0,0)" fill="rgb(255,255,255)"/></clipPath><g clip-path="url(#_clipPath_mtrdRkXdjEgsmNIwDv0nIiv66JlREggJ)"><g><g><linearGradient id="_lgradient_5" x1="-0.25886194029850756" y1="-0.07789179104477617" x2="1.361328125" y2="1.3066406250000018" gradientTransform="matrix(16,0,0,16,0,0)" gradientUnits="userSpaceOnUse"><stop offset="41.73913043478261%" stop-opacity="1" style="stop-color:rgb(255,255,255)"/><stop offset="100%" stop-opacity="1" style="stop-color:rgb(0,0,0)"/></linearGradient><rect x="0" y="0" width="16" height="16" transform="matrix(1,0,0,1,0,0)" fill="url(#_lgradient_5)"/><rect x="1" y="1" width="14" height="14" transform="matrix(1,0,0,1,0,0)" fill="rgb(235,235,235)"/></g></g></g><rect x="0" y="0" width="16" height="16" transform="matrix(1,0,0,1,0,0)" fill="none" vector-effect="non-scaling-stroke" stroke-width="0.1" stroke-dasharray="0.2,0.2" stroke="rgb(185,185,185)" stroke-opacity="100" stroke-linejoin="miter" stroke-linecap="square" stroke-miterlimit="2"/></g><g><path d=" M 12.4 6.7 L 4 10 L 4 6.4 L 4 2.8 L 12.4 6.7 Z " fill="rgb(204,75,76)"/><path d=" M 3.8 2 C 3.69 2 3.6 2.089 3.6 2.2 L 3.6 2.8 L 3.6 13.8 C 3.6 13.911 3.69 14 3.8 14 C 3.91 14 4 13.911 4 13.8 L 4 2.8 L 4 2.2 C 4 2.089 3.91 2 3.8 2 Z " fill="rgb(66,74,96)"/></g></g></g></svg>