<?xml version="1.0" encoding="UTF-8" standalone="no"?><!-- Generator: Gravit.io --><svg xmlns="http://www.w3.org/2000/svg" xmlns:xlink="http://www.w3.org/1999/xlink" style="isolation:isolate" viewBox="0 0 16 16" width="16pt" height="16pt"><defs><clipPath id="_clipPath_IRDxJTkAzaWt7FgSu8tHpRknQi5q35r0"><rect width="16" height="16"/></clipPath></defs><g clip-path="url(#_clipPath_IRDxJTkAzaWt7FgSu8tHpRknQi5q35r0)"><rect x="0" y="0" width="16" height="16" transform="matrix(1,0,0,1,0,0)" fill="rgb(255,0,0)"/><clipPath id="_clipPath_myA8KLY88oixqG0jaO30IL9ejbZTCFlp"><rect x="0" y="0" width="16" height="16" transform="matrix(1,0,0,1,0,0)" fill="rgb(255,0,0)"/></clipPath><g clip-path="url(#_clipPath_myA8KLY88oixqG0jaO30IL9ejbZTCFlp)"><g><rect x="0" y="0" width="16" height="16" transform="matrix(1,0,0,1,0,0)" fill="rgb(255,0,0)" vector-effect="non-scaling-stroke" stroke-width="0.1" stroke-dasharray="0.2,0.2" stroke="rgb(162,162,162)" stroke-opacity="100" stroke-linejoin="miter" stroke-linecap="square" stroke-miterlimit="2"/><g><g><g><path d=" M 3.589 13.859 L 3.587 13.856 C 3.802 13.947 4.034 14 4.278 14 C 5.248 14 6.046 13.221 6.158 12.217 C 5.916 12.317 5.654 12.373 5.38 12.373 C 5.058 12.373 4.753 12.297 4.478 12.163 L 4.424 12.616 L 3.096 12.616 L 3.377 13.482 L 2.807 12.469 L 4.122 12.273 L 4.118 11.942 C 3.559 11.518 3.193 10.823 3.193 10.037 C 3.193 9.949 3.199 9.861 3.208 9.775 C 2.408 10.108 1.895 10.992 2.018 11.94 C 2.123 12.746 2.905 13.636 3.589 13.859 Z " fill="rgb(1,0,2)"/><path d=" M 8.999 2 L 5.704 6.922 L 5.154 3.705 L 4.416 7.31 L 3.614 6.245 L 3.614 8.664 L 3.614 9.305 L 3.614 9.345 C 3.614 9.456 3.616 9.56 3.618 9.658 C 3.633 10.325 3.72 10.737 4.11 11.278 C 4.2 11.403 4.304 11.534 4.43 11.677 C 4.458 11.71 4.489 11.74 4.524 11.768 C 4.723 11.933 5.028 12.027 5.454 12.058 C 5.559 12.065 5.669 12.071 5.79 12.071 C 5.913 12.071 6.039 12.067 6.169 12.059 C 6.281 12.053 6.394 12.044 6.509 12.034 C 7.773 11.915 9.161 11.552 9.23 11.534 L 10.573 11.18 L 7.945 10.687 L 11.773 9.232 L 7.95 9.232 L 14 2.383 L 7.46 7.19 L 8.999 2 Z  M 7.342 9.014 L 7.128 9.256 L 6.904 9.509 L 6.598 9.856 L 6.974 9.856 L 7.266 9.856 L 7.557 9.856 L 8.394 9.856 L 7.56 10.173 L 7.259 10.287 L 6.945 10.406 L 5.837 10.827 L 5.665 10.893 L 5.903 10.938 L 6.651 11.077 L 6.969 11.137 L 7.277 11.195 L 7.591 11.254 C 7.466 11.276 7.337 11.297 7.207 11.317 C 7.072 11.338 6.937 11.357 6.801 11.374 C 6.638 11.394 6.477 11.411 6.319 11.423 C 6.246 11.429 6.175 11.433 6.105 11.437 C 5.998 11.442 5.891 11.448 5.791 11.448 C 5.082 11.448 4.896 11.298 4.856 11.253 C 4.765 11.148 4.687 11.053 4.619 10.964 C 4.218 10.438 4.198 10.127 4.198 9.345 L 4.198 8.884 L 4.198 8.457 L 4.198 8.075 L 4.198 8.014 L 4.229 8.055 L 4.412 8.299 L 4.597 8.544 L 4.725 8.715 L 4.779 8.45 L 4.852 8.094 L 4.922 7.753 L 5.103 6.868 L 5.247 7.708 L 5.3 8.016 L 5.353 8.325 L 5.379 8.48 L 5.48 8.329 L 5.674 8.039 L 5.861 7.759 L 7.332 5.562 L 6.583 8.088 L 6.491 8.399 L 6.398 8.714 L 6.392 8.731 L 6.405 8.721 L 6.652 8.54 L 6.897 8.359 L 9.811 6.218 L 7.342 9.014 Z " fill="rgb(1,0,2)"/><path d=" M 11.055 12.77 L 6.88 12.555 L 10.962 13.156 C 11.584 13.008 11.055 12.77 11.055 12.77 Z " fill="rgb(1,0,2)"/><path d=" M 3.863 3.949 L 4.196 6.367 C 4.196 6.367 4.111 3.62 4.147 3.31 C 4.183 3.001 3.72 2.909 3.863 3.949 Z " fill="rgb(1,0,2)"/><path d=" M 10.534 3.041 L 8.402 5.745 C 8.402 5.745 11.114 3.031 11.465 2.781 C 11.815 2.531 11.451 1.877 10.534 3.041 Z " fill="rgb(1,0,2)"/></g></g></g></g></g></g></svg>